<svg width="259" height="108" viewBox="0 0 259 108" fill="none" xmlns="http://www.w3.org/2000/svg">
<rect x="6" y="12" width="253" height="96" fill="black"/>
<path d="M249 100H0V0H249V100ZM46.4932 28.7568C44.6447 27.9144 42.6166 27.5544 40.4102 27.6768C38.2031 27.7575 36.041 28.0254 33.9238 28.4795C31.8475 28.8912 29.9379 29.3409 28.1963 29.8301C26.4542 30.2775 25.1446 30.4474 24.2676 30.3379C23.558 30.2671 22.7437 30.1771 21.8252 30.0684C21.0322 29.999 20.0922 29.9115 19.0068 29.8057C17.9209 29.6582 16.7096 29.4913 15.373 29.3066C16.4709 30.1207 17.3399 30.9396 17.9795 31.7617C18.6189 32.5836 19.1111 33.3249 19.4561 33.9854C19.8859 34.7278 20.1703 35.4731 20.3086 36.2207C20.3576 36.6365 20.4165 37.6149 20.4854 39.1553C20.5543 40.6959 20.6281 42.5494 20.708 44.7148C20.7872 46.8387 20.8491 49.13 20.8926 51.5879C20.936 54.0458 20.957 56.4001 20.9551 58.6504C20.9532 60.9005 20.9254 62.9013 20.873 64.6523C20.8616 66.3608 20.8205 67.5497 20.749 68.2178C20.6731 68.6357 20.4524 69.1398 20.0879 69.7295C19.7642 70.2769 19.2964 70.9523 18.6855 71.7549C18.0747 72.5574 17.238 73.531 16.1748 74.6748C17.5488 74.6089 18.8189 74.5655 19.9854 74.5449L23.1104 74.4902C24.1516 74.4718 25.0891 74.476 25.9229 74.5029C26.7568 74.5299 27.6323 74.5348 28.5488 74.5186C29.3411 74.5462 30.2166 74.5521 31.1748 74.5352L34.2988 74.4795C33.7084 74.0733 33.1782 73.562 32.709 72.9453C32.239 72.2869 31.8527 71.6679 31.5508 71.0898C31.1635 70.3884 30.8592 69.664 30.6377 68.918C30.4162 68.1719 30.2123 67.2795 30.0273 66.2412C29.8869 65.3686 29.7643 64.2869 29.6582 62.9971C29.5513 61.6655 29.5235 60.1032 29.5752 58.3105C29.9485 58.2206 30.3431 58.1516 30.7588 58.1025C31.2156 58.0111 31.6317 57.9409 32.0059 57.8926C32.4632 57.8428 32.8789 57.7934 33.2529 57.7451C33.6688 57.6961 34.2099 57.6244 34.875 57.5293C35.4567 57.4357 36.1427 57.3405 36.9326 57.2432C37.7635 57.1035 38.781 56.9181 39.9854 56.6885C41.2162 57.9585 42.1143 59.2348 42.6787 60.5166C43.2424 61.7568 43.5959 62.8973 43.7393 63.9365C43.9272 65.1415 43.9266 66.3082 43.7383 67.4365C43.5827 68.0643 43.3241 68.7155 42.9609 69.3887C42.638 69.9777 42.1907 70.6312 41.6201 71.3496C41.0495 72.068 40.312 72.7894 39.4082 73.5137C41.4903 73.4352 43.2607 73.3832 44.7188 73.3574L48.4053 73.293C49.5301 73.2731 50.4681 73.2773 51.2188 73.3057C51.9691 73.3341 52.7608 73.3409 53.5938 73.3262L56.0938 73.2812C57.0935 73.2636 58.1762 73.2244 59.3418 73.1621C58.4984 72.5936 57.7798 72.0013 57.1855 71.3867C56.6332 70.7716 56.1438 70.1971 55.7178 69.6631C55.2485 69.0463 54.8416 68.4484 54.498 67.8711C54.0684 67.129 53.7857 66.4675 53.6504 65.8867C53.5151 65.3057 53.4005 64.7442 53.3076 64.2041C53.2556 63.6218 53.1415 63.0192 52.9639 62.3975C52.7862 61.7756 52.4599 61.0315 51.9863 60.165C51.6004 59.5468 51.0262 58.9111 50.2646 58.2578C49.6302 57.7273 48.7869 57.1582 47.7344 56.5518C46.7235 55.9445 45.443 55.4251 43.8936 54.9941C45.4678 54.4662 46.8326 53.859 47.9873 53.1719C49.1836 52.484 50.2127 51.7575 51.0742 50.9922C51.9357 50.2269 52.6515 49.4434 53.2207 48.6416C53.8308 47.7975 54.3161 46.9966 54.6777 46.2402C55.5209 44.4335 55.9473 42.5713 55.9551 40.6543C55.8906 39.3636 55.7024 38.1786 55.3916 37.1006C55.0808 36.0228 54.5629 35.0109 53.8379 34.0654C53.1537 33.0775 52.2209 32.1559 51.0391 31.3018C49.8572 30.4475 48.3416 29.5993 46.4932 28.7568ZM90.4971 28.6045C88.7072 28.7195 87.1667 28.8086 85.876 28.873C84.5847 28.8959 83.5228 28.9358 82.6904 28.9922C81.6913 29.0515 80.858 29.0869 80.1914 29.0986L77.8799 29.1396C76.3385 29.1669 74.1704 29.143 71.377 29.0674C72.4564 29.7723 73.3611 30.357 74.0879 30.8242C72.8967 30.9773 71.8598 31.1033 70.9775 31.1992C69.6466 31.3478 68.586 31.471 67.7959 31.5684C66.8812 31.6678 66.1943 31.7005 65.7354 31.667C65.3188 31.6744 64.7345 31.6433 63.9834 31.5732C63.3571 31.501 62.5433 31.4527 61.543 31.4287C60.5833 31.3623 59.393 31.2588 57.9736 31.1172C58.907 32.0591 59.6515 32.9212 60.207 33.7031C60.8035 34.4427 61.2736 35.1014 61.6172 35.6787C62.0038 36.3385 62.2649 36.9382 62.3994 37.4775C62.6231 38.3486 62.8102 39.5121 62.9609 40.9678C63.1533 42.4228 63.3079 44.0453 63.4229 45.835C63.5378 47.6247 63.6119 49.4992 63.6465 51.457C63.722 53.3725 63.7556 55.2683 63.7471 57.1436C63.7378 58.9773 63.6851 60.7081 63.5889 62.335C63.5335 63.9193 63.4326 65.2548 63.2852 66.3408C63.1735 67.0927 62.9372 67.8889 62.5771 68.7285C62.2564 69.4426 61.8332 70.2842 61.3086 71.252C60.784 72.2196 60.0519 73.2327 59.1123 74.291C60.9839 74.0913 62.5854 73.9379 63.917 73.8311C65.2485 73.7242 66.3513 73.6212 67.2246 73.5225C68.2646 73.4207 69.1186 73.3643 69.7852 73.3525L72.0342 73.3125C73.4923 73.2867 75.452 73.3149 77.9121 73.3965C77.1549 72.9932 76.4788 72.4628 75.8838 71.8066C75.2889 71.1506 74.7772 70.5139 74.3496 69.8965C73.8781 69.1548 73.4269 68.4124 72.9971 67.6699C72.6937 67.0085 72.4252 65.9294 72.1904 64.4336C71.9973 62.9368 71.8418 61.2303 71.7246 59.3154C71.6484 57.3584 71.591 55.2968 71.5527 53.1309C71.5144 50.9646 71.5192 48.8592 71.5664 46.8164C71.6136 44.7739 71.6637 42.8978 71.7168 41.1885C71.8108 39.4366 71.9321 38.0584 72.0811 37.0557C72.1534 36.4294 72.3711 35.7586 72.7334 35.0439C73.0147 34.4557 73.4191 33.7817 73.9473 33.0225C74.296 32.5313 74.715 32.0308 75.2041 31.5215C75.5243 31.7195 75.8078 31.8962 76.0557 32.0479C76.5614 32.3722 76.9417 32.636 77.1953 32.8398C77.4905 33.0432 77.7737 33.7469 78.0449 34.9502C78.3162 36.1539 78.6135 37.6702 78.9375 39.498C79.3024 41.2834 79.7136 43.2971 80.1699 45.5391C80.6672 47.7389 81.247 49.917 81.9102 52.0723C82.4001 53.8554 82.9988 55.8658 83.7051 58.1035C84.3222 60.0095 85.0294 62.3103 85.8271 65.0049C86.6658 67.6571 87.6345 70.599 88.7334 73.8301L97.3994 72.5518C98.4923 68.3652 99.469 64.6387 100.328 61.373C101.186 58.0658 101.968 55.1554 102.674 52.6426C103.379 50.1299 103.987 47.9728 104.497 46.1719C105.007 44.3711 105.459 42.842 105.854 41.585C106.76 38.6524 107.414 36.7447 107.815 35.8623C108.18 35.2725 108.627 34.639 109.157 33.9629C109.605 33.3716 110.178 32.7366 110.874 32.0576C111.612 31.3778 112.495 30.6739 113.524 29.9473L101.589 30.1582C100.922 30.17 100.11 30.2051 99.1523 30.2637C98.2366 30.3215 97.1333 30.3828 95.8428 30.4473C96.7732 31.2226 97.4939 31.9191 98.0049 32.5352C98.5567 33.1087 98.9408 33.6226 99.1572 34.0771C99.416 34.5726 99.5703 35.0494 99.6201 35.5068C99.6259 35.8403 99.4545 36.7398 99.1055 38.2041C98.7556 39.627 98.3066 41.3438 97.7588 43.3535C97.2518 45.321 96.6851 47.4152 96.0576 49.6348C95.4294 51.8127 94.8193 53.8448 94.2275 55.7305C93.6351 57.5743 93.0986 59.1044 92.6201 60.3213C92.1832 61.5375 91.8815 62.1474 91.7148 62.1504C91.5482 62.1526 91.2676 61.595 90.873 60.4775C90.5192 59.317 90.0973 57.8447 89.6074 56.0615C89.1592 54.2776 88.7066 52.2854 88.251 50.085C87.7954 47.8844 87.4034 45.724 87.0742 43.6045C86.7443 41.4434 86.521 39.4467 86.4053 37.6152C86.3305 35.7414 86.4297 34.2601 86.7021 33.1719C86.8198 32.7532 87.0409 32.2908 87.3652 31.7852C87.6495 31.3635 88.0371 30.8775 88.5273 30.3271C89.0177 29.7768 89.6743 29.2024 90.4971 28.6045ZM224.496 27.3613C221.796 27.8674 219.532 28.2824 217.704 28.6064C215.917 28.888 214.483 29.101 213.402 29.2451C212.114 29.4346 211.095 29.5564 210.346 29.6113C209.597 29.6662 208.68 29.6827 207.597 29.6602C206.638 29.6354 205.429 29.6145 203.97 29.5986C202.552 29.5403 200.8 29.468 198.715 29.3799C199.856 30.2765 200.725 31.0944 201.321 31.834C201.959 32.5728 202.43 33.2315 202.731 33.8096C203.076 34.4701 203.296 35.0704 203.389 35.6104C203.397 36.0686 203.101 37.0738 202.504 38.626C201.906 40.1784 201.126 42.0267 200.164 44.1689C199.201 46.2695 198.116 48.5185 196.908 50.915C195.742 53.3109 194.614 55.5603 193.526 57.6631C192.48 59.7651 191.533 61.5946 190.686 63.1514C189.838 64.6659 189.272 65.6346 188.987 66.0566C188.579 66.5222 188.087 67.0104 187.513 67.5205C187.021 67.9876 186.404 68.4989 185.664 69.0537C185.588 69.1064 185.509 69.1582 185.43 69.2109C185.476 68.1724 185.518 67.1415 185.55 66.1182C185.602 64.3671 185.658 62.8029 185.717 61.4268C185.771 59.8006 185.787 58.2787 185.762 56.8623C185.812 54.9863 185.859 52.9227 185.902 50.6719C185.946 48.4208 185.991 46.2524 186.037 44.168C186.125 42.0831 186.196 40.2067 186.25 38.5391C186.345 36.8289 186.469 35.5966 186.622 34.8438C186.737 34.2584 186.976 33.6291 187.339 32.9561C187.662 32.367 188.088 31.6929 188.616 30.9336C189.145 30.1742 189.86 29.3689 190.762 28.5195C189.181 28.6725 187.849 28.8009 186.768 28.9033C185.727 28.9634 184.853 29.0409 184.146 29.1367C183.356 29.234 182.69 29.2873 182.148 29.2969C181.733 29.3459 181.15 29.3774 180.4 29.3906L177.775 29.4365C176.692 29.4557 175.296 29.4597 173.588 29.4482C174.654 30.8462 175.489 32.1033 176.092 33.2178C176.694 34.2904 177.169 35.2193 177.517 36.0049C177.908 36.9146 178.172 37.7228 178.31 38.4287C178.403 39.0105 178.46 39.8853 178.48 41.0518C178.501 42.2181 178.504 43.5098 178.487 44.9268C178.512 46.3015 178.495 47.74 178.438 49.2412C178.423 50.6998 178.404 52.0544 178.385 53.3047C178.364 54.5135 178.341 55.5352 178.314 56.3691C178.287 57.1606 178.273 57.5777 178.273 57.6201C178.275 57.7032 178.079 57.2479 177.687 56.2549C177.294 55.2618 176.793 53.9995 176.183 52.4688C175.614 50.9371 174.981 49.3022 174.283 47.5645C173.586 45.8266 172.932 44.2329 172.323 42.7852C171.803 41.6276 171.238 40.3246 170.629 38.877C170.108 37.6777 169.457 36.2308 168.677 34.5361C167.938 32.8406 167.113 30.9799 166.202 28.9541C164.661 28.9813 163.37 29.0249 162.329 29.085L157.955 29.1621C157.456 29.2126 156.768 29.2036 155.892 29.1357C155.14 29.0657 154.159 28.9796 152.949 28.876C151.739 28.7723 150.193 28.5697 148.312 28.2695C149.285 29.0857 150.049 29.8434 150.604 30.542C151.157 31.1988 151.604 31.7955 151.947 32.3311C152.333 32.9491 152.594 33.5282 152.729 34.0674C152.776 34.3999 152.854 35.2746 152.962 36.6895C153.112 38.1036 153.247 39.8097 153.365 41.8076C153.484 43.8058 153.585 45.9715 153.668 48.3037C153.793 50.6349 153.874 52.8629 153.911 54.9873C153.99 57.0695 154.022 58.9452 154.01 60.6123C153.997 62.237 153.934 63.3839 153.821 64.0527C153.666 64.6806 153.386 65.4153 152.984 66.2559C152.664 66.9699 152.2 67.8538 151.594 68.9062C151.329 69.3783 151.019 69.8734 150.664 70.3926C150.584 70.3608 150.506 70.3323 150.431 70.3018C149.885 70.0614 149.444 69.8609 149.107 69.7002C148.73 69.5402 148.456 69.4192 148.288 69.3389C147.868 69.138 147.572 68.9139 147.401 68.667C147.229 68.3782 146.824 67.8018 146.184 66.9385C145.97 66.6505 145.62 65.74 145.135 64.207C144.69 62.6314 144.177 60.7441 143.597 58.5459C143.015 56.3059 142.432 53.9193 141.846 51.3877C141.258 48.8144 140.716 46.4065 140.218 44.165C139.719 41.8822 139.329 39.9099 139.05 38.248C138.77 36.5865 138.669 35.5462 138.745 35.1279C138.862 34.6676 139.081 34.1009 139.402 33.4287C139.684 32.882 140.069 32.2284 140.556 31.4697C141.083 30.6687 141.818 29.7806 142.759 28.8057C140.059 29.3117 137.796 29.7268 135.968 30.0508C134.181 30.3324 132.746 30.5453 131.665 30.6895C130.377 30.8788 129.358 31.0007 128.609 31.0557C127.86 31.1106 126.943 31.127 125.859 31.1045C124.9 31.0798 123.691 31.0598 122.232 31.0439C120.815 30.9857 119.063 30.9124 116.978 30.8242C118.118 31.7207 118.987 32.5388 119.584 33.2783C120.222 34.0171 120.692 34.6759 120.994 35.2539C121.339 35.9144 121.558 36.5147 121.651 37.0547C121.659 37.5129 121.364 38.5189 120.767 40.0713C120.169 41.6237 119.389 43.4711 118.427 45.6133C117.464 47.7139 116.379 49.9628 115.171 52.3594C114.005 54.7553 112.877 57.0046 111.789 59.1074C110.743 61.2095 109.796 63.0398 108.948 64.5967C108.1 66.1115 107.534 67.0802 107.25 67.502C106.842 67.9676 106.35 68.4556 105.775 68.9658C105.284 69.4329 104.667 69.9433 103.927 70.498C103.186 71.0112 102.278 71.5278 101.204 72.0469C102.951 71.8493 104.594 71.6955 106.134 71.585C107.631 71.4335 108.942 71.3053 110.065 71.2021C111.397 71.0953 112.583 71.0122 113.624 70.9521C114.665 70.8921 115.726 70.8313 116.809 70.7705C117.724 70.7126 118.724 70.6744 119.808 70.6553C120.891 70.6361 121.953 70.6379 122.995 70.6611C122.191 69.9254 121.576 69.29 121.149 68.7559C120.764 68.1796 120.464 67.6852 120.248 67.2725C120.032 66.8181 119.878 66.4245 119.789 66.0928C119.742 65.802 119.778 65.4261 119.895 64.9658C119.971 64.5895 120.109 64.149 120.309 63.6455C120.507 63.1003 120.809 62.4694 121.213 61.7539L137.618 59.7764C137.816 61.5647 137.946 63.0214 138.008 64.1455C138.069 65.2276 138.084 66.1023 138.054 66.7695C138.025 67.5198 137.973 68.0835 137.896 68.46C137.777 68.7954 137.554 69.1752 137.229 69.5977C136.943 69.936 136.533 70.3599 136.001 70.8691C135.509 71.3362 134.852 71.8689 134.029 72.4668C135.611 72.3555 136.984 72.2475 138.149 72.1436C139.356 72.0389 140.334 71.9384 141.082 71.8418C141.955 71.743 142.704 71.6888 143.329 71.6777C143.953 71.625 144.702 71.5698 145.576 71.5127C146.325 71.4578 147.284 71.42 148.45 71.3994C148.931 71.3737 149.452 71.3418 150.011 71.3076C149.781 71.6172 149.537 71.9351 149.277 72.2598C151.397 71.9306 153.164 71.6702 154.577 71.4785C156.032 71.2861 157.176 71.141 158.008 71.043C159.005 70.9003 159.796 70.8238 160.379 70.8135L162.254 70.7803C163.462 70.7589 165.296 70.7886 167.756 70.8701C167.015 69.0498 166.382 67.4149 165.856 65.9658C165.372 64.5159 164.954 63.252 164.602 62.1748C164.205 60.9318 163.893 59.8115 163.667 58.8154C163.482 57.777 163.313 56.4881 163.161 54.9492C163.054 53.6176 162.963 51.952 162.886 49.9531C162.85 47.9118 162.868 45.4528 162.942 42.5762C164.27 44.5945 165.406 46.3873 166.351 47.9541C167.337 49.5202 168.152 50.84 168.796 51.9121C169.568 53.1901 170.193 54.3248 170.669 55.3164C171.229 56.3482 171.919 57.628 172.737 59.1553C173.469 60.4758 174.395 62.1687 175.515 64.2324C176.676 66.2538 178.094 68.6875 179.77 71.5332L185.329 71.3096C185.346 70.9888 185.359 70.668 185.375 70.3486C186.235 70.2672 187.067 70.1974 187.871 70.1396C189.369 69.9882 190.679 69.861 191.803 69.7578C193.134 69.6509 194.321 69.5679 195.361 69.5078C196.402 69.4477 197.464 69.387 198.546 69.3262C199.462 69.2683 200.462 69.2301 201.545 69.2109C202.628 69.1918 203.69 69.1936 204.732 69.2168C203.928 68.4811 203.313 67.8457 202.887 67.3115C202.501 66.7349 202.2 66.24 201.984 65.8271C201.768 65.3728 201.616 64.9792 201.526 64.6475C201.48 64.3566 201.515 63.9808 201.632 63.5205C201.709 63.1442 201.846 62.7036 202.046 62.2002C202.245 61.6551 202.546 61.0249 202.95 60.3096L219.355 58.332C219.554 60.1201 219.684 61.5762 219.745 62.7002C219.806 63.7825 219.821 64.6579 219.791 65.3252C219.763 66.0756 219.71 66.6392 219.634 67.0156C219.515 67.3511 219.292 67.7299 218.966 68.1523C218.68 68.4908 218.271 68.9153 217.738 69.4248C217.246 69.8918 216.589 70.4246 215.767 71.0225C217.348 70.9112 218.722 70.8032 219.887 70.6992C221.093 70.5946 222.071 70.494 222.819 70.3975C223.693 70.2987 224.442 70.2435 225.066 70.2324C225.69 70.1797 226.44 70.1245 227.313 70.0674C228.063 70.0125 229.021 69.9747 230.188 69.9541C231.353 69.8918 232.748 69.8054 234.371 69.6934C233.49 69.3755 232.756 69.0961 232.168 68.8564C231.622 68.6161 231.181 68.4156 230.845 68.2549C230.467 68.0949 230.193 67.9749 230.025 67.8945C229.605 67.6936 229.31 67.4696 229.139 67.2227C228.967 66.934 228.561 66.3576 227.921 65.4941C227.707 65.2061 227.358 64.2949 226.872 62.7617C226.428 61.1861 225.915 59.2988 225.334 57.1006C224.753 54.8607 224.169 52.4748 223.583 49.9434C222.996 47.3701 222.453 44.9622 221.955 42.7207C221.456 40.4375 221.067 38.4647 220.787 36.8027C220.508 35.141 220.406 34.1007 220.482 33.6826C220.599 33.2222 220.818 32.6556 221.14 31.9834C221.422 31.4367 221.806 30.784 222.293 30.0254C222.821 29.2244 223.555 28.3363 224.496 27.3613ZM133.029 37.1035C133.392 38.764 133.688 40.1969 133.918 41.4014C134.189 42.5633 134.414 43.5386 134.595 44.3271C134.778 45.2406 134.936 45.9883 135.071 46.5693C135.166 47.1927 135.304 47.9198 135.485 48.75C135.623 49.4559 135.805 50.3486 136.032 51.4277C136.259 52.4654 136.51 53.7116 136.786 55.165L123.809 56.5195C123.888 56.2674 124.269 55.4268 124.951 53.999C125.513 52.7806 126.417 50.8682 127.663 48.2627C128.95 45.6146 130.739 41.8945 133.029 37.1035ZM214.767 35.6592C215.129 37.3196 215.426 38.7526 215.655 39.957C215.926 41.1188 216.151 42.0943 216.332 42.8828C216.515 43.7962 216.673 44.544 216.809 45.125C216.903 45.7482 217.041 46.4748 217.223 47.3047C217.36 48.0107 217.542 48.904 217.77 49.9834C217.996 51.0212 218.248 52.2671 218.523 53.7207L205.545 55.0752C205.624 54.8236 206.005 53.9834 206.688 52.5547C207.25 51.3362 208.155 49.424 209.4 46.8184C210.687 44.1702 212.476 40.4503 214.767 35.6592ZM35.8838 33.2578C36.4669 33.2476 37.1358 33.3819 37.8906 33.6602C38.6866 33.8961 39.4036 34.3624 40.041 35.0596C40.7192 35.7143 41.2559 36.6217 41.6514 37.7812C42.0886 38.9403 42.2404 40.4176 42.1055 42.2119C41.9289 44.0066 41.7664 45.4263 41.6182 46.4707C41.5116 47.5143 41.3591 48.3301 41.1611 48.917C40.9624 49.4622 40.7188 49.8621 40.4316 50.1172C40.1445 50.3722 39.7949 50.6285 39.3828 50.8857C38.6812 51.2732 37.8321 51.5807 36.8359 51.8066C36.0065 52.0296 34.9886 52.1932 33.7822 52.2979C32.5749 52.3609 31.1772 52.2815 29.5898 52.0596C29.368 48.9381 29.2608 46.4181 29.2686 44.501C29.2763 42.5844 29.3327 41.0833 29.4385 39.998C29.583 38.7455 29.7554 37.846 29.9541 37.3008C30.5159 36.0825 31.3527 35.1089 32.4648 34.3809C33.5771 33.6528 34.7173 33.2784 35.8838 33.2578Z" fill="#14F7AB"/>
</svg>
